<svg preserveAspectRatio="none" width="100%" height="100%" overflow="visible" style="display: block;" viewBox="0 0 20 20" fill="none" xmlns="http://www.w3.org/2000/svg">
<g id="Icon">
<path id="Vector" d="M15 10.4167V8.33333C15 7.89131 14.8244 7.46738 14.5118 7.15482C14.1993 6.84226 13.7754 6.66667 13.3333 6.66667C12.8913 6.66667 12.4674 6.84226 12.1548 7.15482C11.8423 7.46738 11.6667 7.89131 11.6667 8.33333V9.5" stroke="var(--stroke-0, white)" stroke-width="1.66667" stroke-linecap="round" stroke-linejoin="round"/>
<path id="Vector_2" d="M11.6667 9.16667V7.5C11.6667 7.05797 11.4911 6.63405 11.1785 6.32149C10.8659 6.00893 10.442 5.83333 10 5.83333C9.55797 5.83333 9.13405 6.00893 8.82149 6.32149C8.50893 6.63405 8.33333 7.05797 8.33333 7.5V9.16667" stroke="var(--stroke-0, white)" stroke-width="1.66667" stroke-linecap="round" stroke-linejoin="round"/>
<path id="Vector_3" d="M8.33333 8.75V4.16667C8.33333 3.72464 8.15774 3.30072 7.84518 2.98816C7.53262 2.67559 7.10869 2.5 6.66667 2.5C6.22464 2.5 5.80072 2.67559 5.48816 2.98816C5.17559 3.30072 5 3.72464 5 4.16667V11.6667" stroke="var(--stroke-0, white)" stroke-width="1.66667" stroke-linecap="round" stroke-linejoin="round"/>
<path id="Vector_4" d="M5.83333 12.5L4.36667 11.0333C4.05014 10.7455 3.63504 10.5904 3.20731 10.6002C2.77958 10.6099 2.372 10.7838 2.06893 11.0858C1.76587 11.3878 1.59055 11.7948 1.57927 12.2225C1.56799 12.6501 1.72161 13.0658 2.00833 13.3833L5.00833 16.3833C6.25 17.6167 7.66667 18.3333 10 18.3333H11.6667C13.4348 18.3333 15.1305 17.631 16.3807 16.3807C17.631 15.1305 18.3333 13.4348 18.3333 11.6667V5.83333C18.3333 5.39131 18.1577 4.96738 17.8452 4.65482C17.5326 4.34226 17.1087 4.16667 16.6667 4.16667C16.2246 4.16667 15.8007 4.34226 15.4882 4.65482C15.1756 4.96738 15 5.39131 15 5.83333V10" stroke="var(--stroke-0, white)" stroke-width="1.66667" stroke-linecap="round" stroke-linejoin="round"/>
</g>
</svg>
