<svg preserveAspectRatio="none" width="100%" height="100%" overflow="visible" style="display: block;" viewBox="0 0 16 16" fill="none" xmlns="http://www.w3.org/2000/svg">
<g id="Icon">
<path id="Vector" d="M7.33333 3.13467C7.3332 3.04181 7.30556 2.95107 7.25391 2.8739C7.20225 2.79674 7.1289 2.7366 7.0431 2.70108C6.95731 2.66557 6.86291 2.65626 6.77183 2.67434C6.68075 2.69242 6.59706 2.73707 6.53133 2.80267L4.27533 5.058C4.18827 5.14558 4.08469 5.21502 3.97059 5.26228C3.8565 5.30955 3.73416 5.3337 3.61067 5.33333H2C1.82319 5.33333 1.65362 5.40357 1.5286 5.5286C1.40357 5.65362 1.33333 5.82319 1.33333 6V10C1.33333 10.1768 1.40357 10.3464 1.5286 10.4714C1.65362 10.5964 1.82319 10.6667 2 10.6667H3.61067C3.73416 10.6663 3.8565 10.6905 3.97059 10.7377C4.08469 10.785 4.18827 10.8544 4.27533 10.942L6.53067 13.198C6.5964 13.2639 6.6802 13.3087 6.77146 13.3269C6.86272 13.3451 6.95732 13.3358 7.04328 13.3002C7.12925 13.2645 7.2027 13.2042 7.25433 13.1268C7.30597 13.0494 7.33346 12.9584 7.33333 12.8653V3.13467Z" stroke="var(--stroke-0, #6A7282)" stroke-width="1.33333" stroke-linecap="round" stroke-linejoin="round"/>
<path id="Vector_2" d="M10.6667 6C11.0994 6.57699 11.3333 7.27877 11.3333 8C11.3333 8.72123 11.0994 9.42301 10.6667 10" stroke="var(--stroke-0, #6A7282)" stroke-width="1.33333" stroke-linecap="round" stroke-linejoin="round"/>
<path id="Vector_3" d="M12.9093 12.2427C13.4665 11.6855 13.9085 11.0241 14.21 10.2961C14.5115 9.56816 14.6667 8.78794 14.6667 8C14.6667 7.21206 14.5115 6.43184 14.21 5.70388C13.9085 4.97592 13.4665 4.31449 12.9093 3.75733" stroke="var(--stroke-0, #6A7282)" stroke-width="1.33333" stroke-linecap="round" stroke-linejoin="round"/>
</g>
</svg>
