<svg preserveAspectRatio="none" width="100%" height="100%" overflow="visible" style="display: block;" viewBox="0 0 16 16" fill="none" xmlns="http://www.w3.org/2000/svg">
<g id="Icon">
<path id="Vector" d="M12 8.33333V6.66667C12 6.31304 11.8595 5.97391 11.6095 5.72386C11.3594 5.47381 11.0203 5.33333 10.6667 5.33333C10.313 5.33333 9.97391 5.47381 9.72386 5.72386C9.47381 5.97391 9.33333 6.31304 9.33333 6.66667V7.6" stroke="var(--stroke-0, white)" stroke-width="1.33333" stroke-linecap="round" stroke-linejoin="round"/>
<path id="Vector_2" d="M9.33333 7.33333V6C9.33333 5.64638 9.19286 5.30724 8.94281 5.05719C8.69276 4.80714 8.35362 4.66667 8 4.66667C7.64638 4.66667 7.30724 4.80714 7.05719 5.05719C6.80714 5.30724 6.66667 5.64638 6.66667 6V7.33333" stroke="var(--stroke-0, white)" stroke-width="1.33333" stroke-linecap="round" stroke-linejoin="round"/>
<path id="Vector_3" d="M6.66667 7V3.33333C6.66667 2.97971 6.52619 2.64057 6.27614 2.39052C6.02609 2.14048 5.68696 2 5.33333 2C4.97971 2 4.64057 2.14048 4.39052 2.39052C4.14048 2.64057 4 2.97971 4 3.33333V9.33333" stroke="var(--stroke-0, white)" stroke-width="1.33333" stroke-linecap="round" stroke-linejoin="round"/>
<path id="Vector_4" d="M4.66667 10L3.49333 8.82667C3.24011 8.59639 2.90803 8.47232 2.56585 8.48013C2.22367 8.48794 1.8976 8.62705 1.65515 8.86864C1.4127 9.11023 1.27244 9.43581 1.26342 9.77796C1.25439 10.1201 1.37729 10.4526 1.60667 10.7067L4.00667 13.1067C5 14.0933 6.13333 14.6667 8 14.6667H9.33333C10.7478 14.6667 12.1044 14.1048 13.1046 13.1046C14.1048 12.1044 14.6667 10.7478 14.6667 9.33333V4.66667C14.6667 4.31304 14.5262 3.97391 14.2761 3.72386C14.0261 3.47381 13.687 3.33333 13.3333 3.33333C12.9797 3.33333 12.6406 3.47381 12.3905 3.72386C12.1405 3.97391 12 4.31304 12 4.66667V8" stroke="var(--stroke-0, white)" stroke-width="1.33333" stroke-linecap="round" stroke-linejoin="round"/>
</g>
</svg>
